Coordinates
version=1
nRows=5
nColumns=42
inDegrees=yes

Units are S.I. units (second, meters, Newtons, ...)
If the header above contains a line with 'inDegrees', this indicates whether rotational values are in degrees (yes) or radians (no).

endheader
time	pelvis_tilt	pelvis_list	pelvis_rotation	pelvis_tx	pelvis_ty	pelvis_tz	hip_flexion_r	hip_adduction_r	hip_rotation_r	knee_angle_r	knee_adduction_r	knee_angle_r_beta	ankle_angle_r	subtalar_angle_r	mtp_angle_r	hip_flexion_l	hip_adduction_l	hip_rotation_l	knee_angle_l	knee_adduction_l	knee_angle_l_beta	ankle_angle_l	subtalar_angle_l	mtp_angle_l	lumbar_extension	lumbar_bending	lumbar_rotation	arm_flex_r	arm_add_r	arm_rot_r	elbow_flex_r	pro_sup_r	wrist_flex_r	wrist_dev_r	arm_flex_l	arm_add_l	arm_rot_l	elbow_flex_l	pro_sup_l	wrist_flex_l	wrist_dev_l
      2.98000000	     21.62522427	      1.05590815	      4.24954642	      0.85520238	      0.94297689	     -0.54890560	      4.49430884	     -6.47017165	    -24.49118634	     54.05197630	    -13.41162089	      0.94338495	     13.04817731	     20.80512928	     -7.50110334	    -15.02301250	      6.36976699	     -1.58904740	     22.65242738	     -2.07290748	      0.39535944	     20.45491565	     -7.24676057	     -7.50110334	    -35.44080264	     -2.76205596	      1.49116586	     12.87505705	    -11.94418163	    -14.44682182	     30.57565793	     90.00000001	      0.00000000	      0.00000000	     -0.14878802	    -22.39827844	      5.93836063	     70.69739794	     90.00000001	      0.00000000	      0.00000000
      2.99000000	     21.49573967	      0.99598942	      4.11356312	      0.85905928	      0.94295070	     -0.55006690	      5.20159490	     -6.07495159	    -24.61728986	     52.47467747	    -13.48536759	      0.91585590	     12.92588107	     22.46686701	     -7.50103441	    -15.30513945	      6.45191541	     -1.61619004	     22.31246997	     -2.08649822	      0.38942607	     20.55470471	     -7.36361175	     -7.50103441	    -35.36588268	     -2.79258037	      1.51606629	     12.58026407	    -11.93549979	    -14.97427926	     30.36035655	     90.00000001	      0.00000000	      0.00000000	     -0.21568178	    -22.41047064	      5.80697724	     70.54123718	     90.00000001	      0.00000000	      0.00000000
      3.00000000	     21.13290908	      1.06621457	      4.04096538	      0.86271054	      0.94238123	     -0.55132590	      6.18860675	     -5.92077095	    -24.20992822	     51.28028327	    -12.92071576	      0.89500978	     12.85774551	     22.34778780	     -7.50101959	    -15.15273648	      6.68113265	     -1.77591930	     22.36559555	     -2.17512462	      0.39035328	     20.64968836	     -7.17530472	     -7.50101959	    -35.08666133	     -2.94648518	      1.41784239	     12.15106280	    -11.97226727	    -14.97698288	     30.39716622	     90.00000001	      0.00000000	      0.00000000	     -0.30087447	    -22.47866384	      5.74428314	     70.53090175	     90.00000001	      0.00000000	      0.00000000
      3.01000000	     20.81716931	      1.08311131	      3.90584658	      0.86643069	      0.94189757	     -0.55246538	      7.05114739	     -5.64261532	    -23.67074832	     49.89729201	    -12.37947176	      0.87087203	     12.73832142	     22.49120043	     -7.50100684	    -15.11872677	      6.89782879	     -1.96257242	     22.25245230	     -2.34929840	      0.38837856	     20.87461450	     -7.10516894	     -7.50100684	    -34.83664634	     -3.05909095	      1.39310497	     11.76761922	    -12.02126760	    -14.99970552	     30.32985455	     90.00000001	      0.00000000	      0.00000000	     -0.38731813	    -22.51644939	      5.66922678	     70.48174578	     90.00000001	      0.00000000	      0.00000000
      3.02000000	     21.21715805	      0.70410047	      3.68913657	      0.87068231	      0.94286407	     -0.55308853	      6.81800374	     -4.68088282	    -23.58030850	     47.58163526	    -12.36714216	      0.83045620	     12.32732988	     25.51695497	     -7.50095581	    -16.25893140	      6.51312899	     -1.90645618	     21.31798626	     -2.13421446	      0.37206905	     20.90859086	     -7.15422746	     -7.50095581	    -35.25539516	     -2.78351982	      1.65002501	     11.65931758	    -12.02021931	    -15.87489821	     29.78198191	     90.00000001	      0.00000000	      0.00000000	     -0.45377667	    -22.39027111	      5.35518316	     70.24730726	     90.00000001	      0.00000000	      0.00000000
